<mxfile host="app.diagrams.net" modified="2024-03-05T23:10:52.063Z" agent="Mozilla/5.0 (Windows NT 10.0; Win64; x64) AppleWebKit/537.36 (KHTML, like Gecko) Chrome/122.0.0.0 Safari/537.36 Edg/122.0.0.0" etag="NIeaFv_LS0Wixy6Y6D46" version="24.0.1" type="google">
  <diagram id="C5RBs43oDa-KdzZeNtuy" name="Page-1">
    <mxGraphModel grid="1" page="1" gridSize="10" guides="1" tooltips="1" connect="1" arrows="1" fold="1" pageScale="1" pageWidth="827" pageHeight="1169" math="0" shadow="0">
      <root>
        <mxCell id="WIyWlLk6GJQsqaUBKTNV-0" />
        <mxCell id="WIyWlLk6GJQsqaUBKTNV-1" parent="WIyWlLk6GJQsqaUBKTNV-0" />
        <mxCell id="zkfFHV4jXpPFQw0GAbJ--12" value="" style="endArrow=block;endSize=10;endFill=0;shadow=0;strokeWidth=1;rounded=0;edgeStyle=elbowEdgeStyle;elbow=vertical;entryX=0.5;entryY=1;entryDx=0;entryDy=0;exitX=0.5;exitY=0;exitDx=0;exitDy=0;" edge="1" parent="WIyWlLk6GJQsqaUBKTNV-1" source="lZRSGbZRZbLsS1pGvsEE-18" target="S3DOLFilEedL9jhg1Yz5-0">
          <mxGeometry width="160" relative="1" as="geometry">
            <mxPoint x="130" y="360" as="sourcePoint" />
            <mxPoint x="230" y="228" as="targetPoint" />
          </mxGeometry>
        </mxCell>
        <mxCell id="zkfFHV4jXpPFQw0GAbJ--16" value="" style="endArrow=block;endSize=10;endFill=0;shadow=0;strokeWidth=1;rounded=0;edgeStyle=elbowEdgeStyle;elbow=vertical;exitX=0.5;exitY=0;exitDx=0;exitDy=0;" edge="1" parent="WIyWlLk6GJQsqaUBKTNV-1" source="lZRSGbZRZbLsS1pGvsEE-22" target="S3DOLFilEedL9jhg1Yz5-0">
          <mxGeometry width="160" relative="1" as="geometry">
            <mxPoint x="445" y="360" as="sourcePoint" />
            <mxPoint x="340" y="230" as="targetPoint" />
          </mxGeometry>
        </mxCell>
        <mxCell id="S3DOLFilEedL9jhg1Yz5-0" value="&lt;p style=&quot;margin:0px;margin-top:4px;text-align:center;&quot;&gt;&lt;i&gt;&amp;lt;&amp;lt;Interface&amp;gt;&amp;gt;&lt;/i&gt;&lt;br&gt;&lt;b&gt;Usuario&lt;/b&gt;&lt;/p&gt;&lt;hr size=&quot;1&quot; style=&quot;border-style:solid;&quot;&gt;&lt;p style=&quot;margin:0px;margin-left:4px;&quot;&gt;- email: string&lt;/p&gt;&lt;p style=&quot;margin:0px;margin-left:4px;&quot;&gt;- nome: string&lt;/p&gt;&lt;p style=&quot;margin:0px;margin-left:4px;&quot;&gt;- codigoEmpresa: string&lt;br&gt;&lt;/p&gt;&lt;p style=&quot;margin:0px;margin-left:4px;&quot;&gt;- cpf: string&lt;/p&gt;&lt;p style=&quot;margin:0px;margin-left:4px;&quot;&gt;- salario: float&lt;/p&gt;&lt;p style=&quot;margin:0px;margin-left:4px;&quot;&gt;- endereco: Endereco&lt;br&gt;&lt;/p&gt;&lt;hr size=&quot;1&quot; style=&quot;border-style:solid;&quot;&gt;&lt;p style=&quot;margin:0px;margin-left:4px;&quot;&gt;+ visualizarUsuario(Type): Type&lt;br&gt;&lt;/p&gt;" style="verticalAlign=top;align=left;overflow=fill;html=1;whiteSpace=wrap;" vertex="1" parent="WIyWlLk6GJQsqaUBKTNV-1">
          <mxGeometry x="150" y="80" width="190" height="180" as="geometry" />
        </mxCell>
        <mxCell id="r7XuDd0O4ZvqXVFFLryg-0" value="" style="endArrow=none;dashed=1;html=1;rounded=0;" edge="1" parent="WIyWlLk6GJQsqaUBKTNV-1">
          <mxGeometry width="50" height="50" relative="1" as="geometry">
            <mxPoint x="-70" y="20" as="sourcePoint" />
            <mxPoint x="850" y="20" as="targetPoint" />
            <Array as="points" />
          </mxGeometry>
        </mxCell>
        <mxCell id="_xdSYPHyjW3nCsW6iEuT-3" value="Entidade" style="edgeLabel;html=1;align=center;verticalAlign=middle;resizable=0;points=[];fontSize=15;fontStyle=1" connectable="0" vertex="1" parent="r7XuDd0O4ZvqXVFFLryg-0">
          <mxGeometry x="0.1238" y="-2" relative="1" as="geometry">
            <mxPoint as="offset" />
          </mxGeometry>
        </mxCell>
        <mxCell id="r7XuDd0O4ZvqXVFFLryg-25" value="" style="endArrow=none;endFill=0;endSize=12;html=1;rounded=0;exitX=0.533;exitY=1.024;exitDx=0;exitDy=0;exitPerimeter=0;" edge="1" parent="WIyWlLk6GJQsqaUBKTNV-1" source="lZRSGbZRZbLsS1pGvsEE-17">
          <mxGeometry width="160" relative="1" as="geometry">
            <mxPoint x="310" y="30" as="sourcePoint" />
            <mxPoint x="240" y="80" as="targetPoint" />
          </mxGeometry>
        </mxCell>
        <mxCell id="r7XuDd0O4ZvqXVFFLryg-28" value="gerencia" style="edgeLabel;html=1;align=center;verticalAlign=middle;resizable=0;points=[];" connectable="0" vertex="1" parent="r7XuDd0O4ZvqXVFFLryg-25">
          <mxGeometry x="-0.4478" y="2" relative="1" as="geometry">
            <mxPoint x="-2" y="14" as="offset" />
          </mxGeometry>
        </mxCell>
        <mxCell id="r7XuDd0O4ZvqXVFFLryg-30" value="" style="endArrow=none;endFill=0;endSize=12;html=1;rounded=0;entryX=0.489;entryY=-0.003;entryDx=0;entryDy=0;entryPerimeter=0;" edge="1" parent="WIyWlLk6GJQsqaUBKTNV-1" source="lZRSGbZRZbLsS1pGvsEE-26" target="lZRSGbZRZbLsS1pGvsEE-14">
          <mxGeometry width="160" relative="1" as="geometry">
            <mxPoint x="230" y="-222.00000000000023" as="sourcePoint" />
            <mxPoint x="230" y="-110" as="targetPoint" />
          </mxGeometry>
        </mxCell>
        <mxCell id="_xdSYPHyjW3nCsW6iEuT-4" value="usa" style="edgeLabel;html=1;align=center;verticalAlign=middle;resizable=0;points=[];" connectable="0" vertex="1" parent="r7XuDd0O4ZvqXVFFLryg-30">
          <mxGeometry x="-0.1452" relative="1" as="geometry">
            <mxPoint as="offset" />
          </mxGeometry>
        </mxCell>
        <mxCell id="r7XuDd0O4ZvqXVFFLryg-32" value="" style="endArrow=none;endFill=0;endSize=12;html=1;rounded=0;" edge="1" parent="WIyWlLk6GJQsqaUBKTNV-1" source="lZRSGbZRZbLsS1pGvsEE-34" target="lZRSGbZRZbLsS1pGvsEE-30">
          <mxGeometry width="160" relative="1" as="geometry">
            <mxPoint x="626.1000000000001" y="-222.00000000000023" as="sourcePoint" />
            <mxPoint x="613.9000000000001" y="-100" as="targetPoint" />
          </mxGeometry>
        </mxCell>
        <mxCell id="_xdSYPHyjW3nCsW6iEuT-5" value="usa" style="edgeLabel;html=1;align=center;verticalAlign=middle;resizable=0;points=[];" connectable="0" vertex="1" parent="r7XuDd0O4ZvqXVFFLryg-32">
          <mxGeometry x="-0.6346" relative="1" as="geometry">
            <mxPoint x="1" y="25" as="offset" />
          </mxGeometry>
        </mxCell>
        <mxCell id="r7XuDd0O4ZvqXVFFLryg-34" value="" style="endArrow=none;dashed=1;html=1;rounded=0;" edge="1" parent="WIyWlLk6GJQsqaUBKTNV-1">
          <mxGeometry width="50" height="50" relative="1" as="geometry">
            <mxPoint x="-70" y="-180" as="sourcePoint" />
            <mxPoint x="850" y="-180" as="targetPoint" />
            <Array as="points" />
          </mxGeometry>
        </mxCell>
        <mxCell id="_xdSYPHyjW3nCsW6iEuT-2" value="Controle" style="edgeLabel;html=1;align=center;verticalAlign=middle;resizable=0;points=[];fontSize=15;fontStyle=1" connectable="0" vertex="1" parent="r7XuDd0O4ZvqXVFFLryg-34">
          <mxGeometry x="0.1238" y="1" relative="1" as="geometry">
            <mxPoint as="offset" />
          </mxGeometry>
        </mxCell>
        <mxCell id="r7XuDd0O4ZvqXVFFLryg-35" value="" style="endArrow=none;dashed=1;html=1;rounded=0;" edge="1" parent="WIyWlLk6GJQsqaUBKTNV-1">
          <mxGeometry width="50" height="50" relative="1" as="geometry">
            <mxPoint x="-70" y="-380" as="sourcePoint" />
            <mxPoint x="850" y="-380" as="targetPoint" />
            <Array as="points" />
          </mxGeometry>
        </mxCell>
        <mxCell id="_xdSYPHyjW3nCsW6iEuT-0" value="Fronteira" style="edgeLabel;html=1;align=center;verticalAlign=middle;resizable=0;points=[];fontSize=15;fontStyle=1" connectable="0" vertex="1" parent="r7XuDd0O4ZvqXVFFLryg-35">
          <mxGeometry x="0.1387" y="-1" relative="1" as="geometry">
            <mxPoint as="offset" />
          </mxGeometry>
        </mxCell>
        <mxCell id="lZRSGbZRZbLsS1pGvsEE-13" value="" style="endArrow=none;endFill=0;endSize=12;html=1;rounded=0;entryX=1;entryY=0.5;entryDx=0;entryDy=0;" edge="1" parent="WIyWlLk6GJQsqaUBKTNV-1" source="_xdSYPHyjW3nCsW6iEuT-7" target="S3DOLFilEedL9jhg1Yz5-0">
          <mxGeometry width="160" relative="1" as="geometry">
            <mxPoint x="570" y="145" as="sourcePoint" />
            <mxPoint x="320" y="174" as="targetPoint" />
          </mxGeometry>
        </mxCell>
        <mxCell id="_xdSYPHyjW3nCsW6iEuT-6" value="possui" style="edgeLabel;html=1;align=center;verticalAlign=middle;resizable=0;points=[];" connectable="0" vertex="1" parent="lZRSGbZRZbLsS1pGvsEE-13">
          <mxGeometry x="-0.0469" y="-1" relative="1" as="geometry">
            <mxPoint as="offset" />
          </mxGeometry>
        </mxCell>
        <mxCell id="lZRSGbZRZbLsS1pGvsEE-14" value="GerenciarUsuario" style="swimlane;fontStyle=1;align=center;verticalAlign=top;childLayout=stackLayout;horizontal=1;startSize=26;horizontalStack=0;resizeParent=1;resizeParentMax=0;resizeLast=0;collapsible=1;marginBottom=0;whiteSpace=wrap;html=1;" vertex="1" parent="WIyWlLk6GJQsqaUBKTNV-1">
          <mxGeometry x="125" y="-140" width="210" height="114" as="geometry" />
        </mxCell>
        <mxCell id="lZRSGbZRZbLsS1pGvsEE-16" value="" style="line;strokeWidth=1;fillColor=none;align=left;verticalAlign=middle;spacingTop=-1;spacingLeft=3;spacingRight=3;rotatable=0;labelPosition=right;points=[];portConstraint=eastwest;strokeColor=inherit;" vertex="1" parent="lZRSGbZRZbLsS1pGvsEE-14">
          <mxGeometry y="26" width="210" height="8" as="geometry" />
        </mxCell>
        <mxCell id="lZRSGbZRZbLsS1pGvsEE-17" value="&lt;div&gt;+ cadastrarUsuario(Usuario): Usuario&lt;/div&gt;&lt;div&gt;+ listarUsuarios(): Usuario&lt;/div&gt;&lt;div&gt;+ deletarUsuario&lt;span style=&quot;background-color: initial;&quot;&gt;(&lt;/span&gt;Usuario&lt;span style=&quot;background-color: initial;&quot;&gt;): &lt;/span&gt;Usuario&lt;/div&gt;&lt;div&gt;+ editarUsuario(Usuario): Usuario&lt;/div&gt;" style="text;strokeColor=none;fillColor=none;align=left;verticalAlign=top;spacingLeft=4;spacingRight=4;overflow=hidden;rotatable=0;points=[[0,0.5],[1,0.5]];portConstraint=eastwest;whiteSpace=wrap;html=1;" vertex="1" parent="lZRSGbZRZbLsS1pGvsEE-14">
          <mxGeometry y="34" width="210" height="80" as="geometry" />
        </mxCell>
        <mxCell id="lZRSGbZRZbLsS1pGvsEE-18" value="Admin" style="swimlane;fontStyle=1;align=center;verticalAlign=top;childLayout=stackLayout;horizontal=1;startSize=26;horizontalStack=0;resizeParent=1;resizeParentMax=0;resizeLast=0;collapsible=1;marginBottom=0;whiteSpace=wrap;html=1;" vertex="1" parent="WIyWlLk6GJQsqaUBKTNV-1">
          <mxGeometry x="-40" y="360" width="210" height="64" as="geometry" />
        </mxCell>
        <mxCell id="lZRSGbZRZbLsS1pGvsEE-20" value="" style="line;strokeWidth=1;fillColor=none;align=left;verticalAlign=middle;spacingTop=-1;spacingLeft=3;spacingRight=3;rotatable=0;labelPosition=right;points=[];portConstraint=eastwest;strokeColor=inherit;" vertex="1" parent="lZRSGbZRZbLsS1pGvsEE-18">
          <mxGeometry y="26" width="210" height="8" as="geometry" />
        </mxCell>
        <mxCell id="lZRSGbZRZbLsS1pGvsEE-21" value="+ gerenciarUsuario(Usuario): Usuario" style="text;strokeColor=none;fillColor=none;align=left;verticalAlign=top;spacingLeft=4;spacingRight=4;overflow=hidden;rotatable=0;points=[[0,0.5],[1,0.5]];portConstraint=eastwest;whiteSpace=wrap;html=1;" vertex="1" parent="lZRSGbZRZbLsS1pGvsEE-18">
          <mxGeometry y="34" width="210" height="30" as="geometry" />
        </mxCell>
        <mxCell id="lZRSGbZRZbLsS1pGvsEE-22" value="Caixa" style="swimlane;fontStyle=1;align=center;verticalAlign=top;childLayout=stackLayout;horizontal=1;startSize=26;horizontalStack=0;resizeParent=1;resizeParentMax=0;resizeLast=0;collapsible=1;marginBottom=0;whiteSpace=wrap;html=1;" vertex="1" parent="WIyWlLk6GJQsqaUBKTNV-1">
          <mxGeometry x="300" y="360" width="200" height="34" as="geometry" />
        </mxCell>
        <mxCell id="lZRSGbZRZbLsS1pGvsEE-24" value="" style="line;strokeWidth=1;fillColor=none;align=left;verticalAlign=middle;spacingTop=-1;spacingLeft=3;spacingRight=3;rotatable=0;labelPosition=right;points=[];portConstraint=eastwest;strokeColor=inherit;" vertex="1" parent="lZRSGbZRZbLsS1pGvsEE-22">
          <mxGeometry y="26" width="200" height="8" as="geometry" />
        </mxCell>
        <mxCell id="lZRSGbZRZbLsS1pGvsEE-26" value="PaginaIncial" style="swimlane;fontStyle=1;align=center;verticalAlign=top;childLayout=stackLayout;horizontal=1;startSize=26;horizontalStack=0;resizeParent=1;resizeParentMax=0;resizeLast=0;collapsible=1;marginBottom=0;whiteSpace=wrap;html=1;" vertex="1" parent="WIyWlLk6GJQsqaUBKTNV-1">
          <mxGeometry x="135" y="-320" width="190" height="60" as="geometry" />
        </mxCell>
        <mxCell id="lZRSGbZRZbLsS1pGvsEE-28" value="" style="line;strokeWidth=1;fillColor=none;align=left;verticalAlign=middle;spacingTop=-1;spacingLeft=3;spacingRight=3;rotatable=0;labelPosition=right;points=[];portConstraint=eastwest;strokeColor=inherit;" vertex="1" parent="lZRSGbZRZbLsS1pGvsEE-26">
          <mxGeometry y="26" width="190" height="8" as="geometry" />
        </mxCell>
        <mxCell id="lZRSGbZRZbLsS1pGvsEE-29" value="+ menu(): void" style="text;strokeColor=none;fillColor=none;align=left;verticalAlign=top;spacingLeft=4;spacingRight=4;overflow=hidden;rotatable=0;points=[[0,0.5],[1,0.5]];portConstraint=eastwest;whiteSpace=wrap;html=1;" vertex="1" parent="lZRSGbZRZbLsS1pGvsEE-26">
          <mxGeometry y="34" width="190" height="26" as="geometry" />
        </mxCell>
        <mxCell id="lZRSGbZRZbLsS1pGvsEE-30" value="VisualizarUsuario" style="swimlane;fontStyle=1;align=center;verticalAlign=top;childLayout=stackLayout;horizontal=1;startSize=26;horizontalStack=0;resizeParent=1;resizeParentMax=0;resizeLast=0;collapsible=1;marginBottom=0;whiteSpace=wrap;html=1;" vertex="1" parent="WIyWlLk6GJQsqaUBKTNV-1">
          <mxGeometry x="550" y="-120" width="160" height="60" as="geometry" />
        </mxCell>
        <mxCell id="lZRSGbZRZbLsS1pGvsEE-32" value="" style="line;strokeWidth=1;fillColor=none;align=left;verticalAlign=middle;spacingTop=-1;spacingLeft=3;spacingRight=3;rotatable=0;labelPosition=right;points=[];portConstraint=eastwest;strokeColor=inherit;" vertex="1" parent="lZRSGbZRZbLsS1pGvsEE-30">
          <mxGeometry y="26" width="160" height="8" as="geometry" />
        </mxCell>
        <mxCell id="lZRSGbZRZbLsS1pGvsEE-33" value="+ listarUsuarios(): Usuario" style="text;strokeColor=none;fillColor=none;align=left;verticalAlign=top;spacingLeft=4;spacingRight=4;overflow=hidden;rotatable=0;points=[[0,0.5],[1,0.5]];portConstraint=eastwest;whiteSpace=wrap;html=1;" vertex="1" parent="lZRSGbZRZbLsS1pGvsEE-30">
          <mxGeometry y="34" width="160" height="26" as="geometry" />
        </mxCell>
        <mxCell id="lZRSGbZRZbLsS1pGvsEE-34" value="BancoDeDados" style="swimlane;fontStyle=1;align=center;verticalAlign=top;childLayout=stackLayout;horizontal=1;startSize=26;horizontalStack=0;resizeParent=1;resizeParentMax=0;resizeLast=0;collapsible=1;marginBottom=0;whiteSpace=wrap;html=1;" vertex="1" parent="WIyWlLk6GJQsqaUBKTNV-1">
          <mxGeometry x="530" y="-330" width="250" height="80" as="geometry" />
        </mxCell>
        <mxCell id="lZRSGbZRZbLsS1pGvsEE-36" value="" style="line;strokeWidth=1;fillColor=none;align=left;verticalAlign=middle;spacingTop=-1;spacingLeft=3;spacingRight=3;rotatable=0;labelPosition=right;points=[];portConstraint=eastwest;strokeColor=inherit;" vertex="1" parent="lZRSGbZRZbLsS1pGvsEE-34">
          <mxGeometry y="26" width="250" height="8" as="geometry" />
        </mxCell>
        <mxCell id="lZRSGbZRZbLsS1pGvsEE-37" value="+ salvarUsuarios(Array&amp;lt;Usuarios&amp;gt;): void&lt;div&gt;+ salvarUsuarios(Array&amp;lt;Usuarios&amp;gt;): void&lt;div&gt;&lt;br&gt;&lt;/div&gt;&lt;/div&gt;" style="text;strokeColor=none;fillColor=none;align=left;verticalAlign=top;spacingLeft=4;spacingRight=4;overflow=hidden;rotatable=0;points=[[0,0.5],[1,0.5]];portConstraint=eastwest;whiteSpace=wrap;html=1;" vertex="1" parent="lZRSGbZRZbLsS1pGvsEE-34">
          <mxGeometry y="34" width="250" height="46" as="geometry" />
        </mxCell>
        <mxCell id="lZRSGbZRZbLsS1pGvsEE-38" value="" style="endArrow=diamondThin;endFill=1;endSize=24;html=1;rounded=0;" edge="1" parent="WIyWlLk6GJQsqaUBKTNV-1" source="lZRSGbZRZbLsS1pGvsEE-30" target="lZRSGbZRZbLsS1pGvsEE-14">
          <mxGeometry width="160" relative="1" as="geometry">
            <mxPoint x="380" y="110" as="sourcePoint" />
            <mxPoint x="330" y="-121" as="targetPoint" />
          </mxGeometry>
        </mxCell>
        <mxCell id="_xdSYPHyjW3nCsW6iEuT-7" value="Endereco" style="swimlane;fontStyle=1;align=center;verticalAlign=top;childLayout=stackLayout;horizontal=1;startSize=26;horizontalStack=0;resizeParent=1;resizeParentMax=0;resizeLast=0;collapsible=1;marginBottom=0;whiteSpace=wrap;html=1;" vertex="1" parent="WIyWlLk6GJQsqaUBKTNV-1">
          <mxGeometry x="570" y="100" width="200" height="140" as="geometry" />
        </mxCell>
        <mxCell id="_xdSYPHyjW3nCsW6iEuT-9" value="" style="line;strokeWidth=1;fillColor=none;align=left;verticalAlign=middle;spacingTop=-1;spacingLeft=3;spacingRight=3;rotatable=0;labelPosition=right;points=[];portConstraint=eastwest;strokeColor=inherit;" vertex="1" parent="_xdSYPHyjW3nCsW6iEuT-7">
          <mxGeometry y="26" width="200" height="8" as="geometry" />
        </mxCell>
        <mxCell id="_xdSYPHyjW3nCsW6iEuT-8" value="&lt;div&gt;- rua: string&lt;/div&gt;&lt;div&gt;- cidade: string&lt;/div&gt;&lt;div&gt;- estado: string&lt;/div&gt;&lt;div&gt;-cep: string&lt;/div&gt;&lt;div&gt;-pais: string&lt;/div&gt;&lt;div&gt;-numero: int&lt;br&gt;&lt;/div&gt;" style="text;strokeColor=none;fillColor=none;align=left;verticalAlign=top;spacingLeft=4;spacingRight=4;overflow=hidden;rotatable=0;points=[[0,0.5],[1,0.5]];portConstraint=eastwest;whiteSpace=wrap;html=1;" vertex="1" parent="_xdSYPHyjW3nCsW6iEuT-7">
          <mxGeometry y="34" width="200" height="106" as="geometry" />
        </mxCell>
      </root>
    </mxGraphModel>
  </diagram>
</mxfile>
